<svg width="166" height="92" viewBox="0 0 166 92" fill="none" xmlns="http://www.w3.org/2000/svg">
<g clip-path="url(#clip0_3219_19636)">
<path d="M86.8427 31.1531C89.6988 31.1531 91.8374 32.4656 92.6961 34.6179L91.0412 35.5228C90.3238 33.8379 88.8863 32.9167 86.8563 32.9167C84.2176 32.9167 82.2828 34.5418 82.2828 36.9277C82.2828 39.3136 84.2176 40.9387 86.8563 40.9387C88.8863 40.9387 90.3211 40.0175 91.0412 38.3326L92.6961 39.2376C91.8374 41.3925 89.6988 42.7023 86.8427 42.7023C83.079 42.7023 80.2393 40.2512 80.2393 36.925C80.2393 33.5988 83.0817 31.1476 86.8427 31.1476V31.1531Z" fill="white"/>
<path d="M96.8352 42.5366H94.8379V31.327H101.816C104.268 31.327 105.952 32.4983 105.952 34.7619C105.952 36.4957 104.939 37.6044 103.33 38.0256L106.235 42.5366H103.955L101.224 38.1968H96.8379V42.5366H96.8352ZM101.705 36.4794C103.142 36.4794 103.985 35.8543 103.985 34.7619C103.985 33.6695 103.142 33.0445 101.705 33.0445H96.8352V36.4794H101.705Z" fill="white"/>
<path d="M110.292 42.5366H108.295V31.327H110.292V42.5366Z" fill="white"/>
<path d="M119.284 31.1531C122.14 31.1531 124.279 32.4656 125.138 34.6179L123.483 35.5228C122.765 33.8379 121.328 32.9167 119.298 32.9167C116.659 32.9167 114.724 34.5418 114.724 36.9277C114.724 39.3136 116.659 40.9387 119.298 40.9387C121.328 40.9387 122.762 40.0175 123.483 38.3326L125.138 39.2376C124.279 41.3925 122.14 42.7023 119.284 42.7023C115.52 42.7023 112.681 40.2512 112.681 36.925C112.681 33.5988 115.523 31.1476 119.284 31.1476V31.1531Z" fill="white"/>
<path d="M129.274 36.9468L136.002 31.327H138.845L132.896 36.1206L139.203 42.5366H136.518L131.445 37.2919L129.274 39.0256V42.5393H127.276V31.3297H129.274V36.9495V36.9468Z" fill="white"/>
<path d="M151.815 31.327V33.0743H142.948V35.8842H150.926V37.6315H142.948V40.7865H151.815V42.5339H140.98V31.3243H151.815V31.327Z" fill="white"/>
<path d="M160.62 33.0744V42.5366H158.623V33.0744H153.565V31.327H165.68V33.0744H160.623H160.62Z" fill="white"/>
<path d="M87.6719 48.1074L93.3704 59.3169H91.248L89.8268 56.5071H83.3157L81.8945 59.3169H79.7559L85.4707 48.1074H87.6719ZM84.2071 54.757H88.9545L86.5821 50.0721L84.2098 54.757H84.2071Z" fill="white"/>
<path d="M100.362 47.9362C103.218 47.9362 105.357 49.2487 106.216 51.4009L104.561 52.3059C103.843 50.621 102.406 49.6998 100.376 49.6998C97.7372 49.6998 95.8023 51.3248 95.8023 53.7108C95.8023 56.0967 97.7372 57.7218 100.376 57.7218C102.406 57.7218 103.841 56.8006 104.561 55.1157L106.216 56.0206C105.357 58.1756 103.218 59.4854 100.362 59.4854C96.5985 59.4854 93.7588 57.0343 93.7588 53.7081C93.7588 50.3819 96.6013 47.9307 100.362 47.9307V47.9362Z" fill="white"/>
<path d="M114.319 49.8574V59.3197H112.322V49.8574H107.265V48.1101H119.379V49.8574H114.322H114.319Z" fill="white"/>
<path d="M52.1622 0.192932H52.1594C45.9745 0.192932 39.4553 0.91578 32.7839 2.33973C27.4631 3.47564 22.0336 5.05721 16.6421 7.04368C7.45432 10.4269 1.62534 13.7749 1.38077 13.9134L0.42694 14.4651L0.361721 15.563C-0.812227 35.2891 2.51396 52.4934 10.2506 66.6949C17.0742 79.2224 25.8733 86.7091 32.0502 90.7853L33.167 91.5217L34.2894 90.7962C43.1728 85.0487 50.5317 76.8528 56.1596 66.4395C60.6244 58.1783 64.0131 48.5096 66.2332 37.6995C69.9969 19.3647 69.1083 4.28544 69.0676 3.65227L68.9697 2.11147L67.4588 1.78265C62.6163 0.728274 57.4667 0.192932 52.1594 0.192932H52.1622Z" fill="#FFF21F"/>
<path d="M60.8881 28.0687C56.9315 31.8324 51.7982 31.8188 51.7982 31.8188C62.4941 28.2263 61.293 21.2533 61.293 21.2533C58.4668 24.7371 51.2574 27.0714 51.2574 27.0714C63.255 20.0794 60.5647 13.8645 60.5647 13.8645C56.1488 20.2641 49.0753 22.1501 49.0753 22.1501C61.9479 13.8781 57.956 7.01376 57.956 7.01376C53.9178 14.3455 48.3415 16.6472 46.2899 17.2722C51.684 11.8971 49.3552 6.61157 49.3552 6.61157C49.3552 6.61157 48.0535 9.30187 44.8577 12.59C40.4582 17.6798 34.6998 21.5604 28.1534 23.68C30.5095 27.085 31.9715 31.1558 32.1916 35.5526C31.4334 34.2945 30.6399 33.1694 29.8573 32.183C29.8464 32.1667 29.8328 32.1477 29.822 32.1341C30.1209 32.183 30.6182 32.4058 30.9226 32.5254C30.7704 32.2156 30.61 31.9112 30.4416 31.6123C30.4062 31.5498 30.3709 31.4927 30.3356 31.433C30.3356 31.433 30.3301 31.4275 30.3247 31.4167C30.1318 31.1014 29.9252 30.8242 29.7051 30.5851C28.6317 29.1883 26.3898 26.4817 24.5908 25.729C24.5908 25.729 24.3707 25.6149 23.9794 25.4708C24.1452 25.354 24.3164 25.2453 24.5012 25.1529C24.4495 25.142 24.4006 25.1284 24.3463 25.1203C23.8734 25.0469 23.4115 25.0632 22.9739 25.1529C23.0419 24.6746 23.0419 24.1746 22.9495 23.6719C22.8354 23.0496 22.6017 22.4789 22.281 21.9843C22.281 21.9897 22.281 21.9952 22.2837 21.9979C22.4821 23.0876 22.1995 24.1447 21.5989 24.9382C21.5853 24.9382 21.5744 24.9382 21.5636 24.9355C22.0255 23.1827 21.3869 21.199 19.7945 19.9679C19.3842 19.65 18.9412 19.4109 18.482 19.2397C18.6423 19.3321 18.8026 19.4326 18.9521 19.5495C20.5581 20.7886 21.0038 22.9436 20.0717 24.5686C20.107 24.3431 20.126 24.1121 20.126 23.8784C20.126 21.2424 17.8733 19.1065 15.096 19.1065C14.3378 19.1065 13.6231 19.2696 12.9764 19.5549C13.3133 19.4679 13.6666 19.4163 14.0335 19.4163C16.2373 19.4163 18.0227 21.1093 18.0227 23.199C18.0227 23.3403 18.0118 23.4789 17.9983 23.6175C17.4819 21.6419 15.6042 20.1772 13.3623 20.1772C10.7209 20.1772 8.5795 22.2071 8.5795 24.7127C8.5795 25.5116 8.79962 26.2589 9.18006 26.9111C8.95995 26.441 8.83494 25.9219 8.83494 25.3757C8.83494 23.286 10.6203 21.593 12.8242 21.593C14.2373 21.593 15.4792 22.2941 16.1857 23.3458C15.558 22.8213 14.7346 22.5006 13.8324 22.5006C11.8622 22.5006 10.2671 24.0143 10.2671 25.8839C10.2671 26.9084 10.748 27.8214 11.5062 28.4437C11.1285 27.9845 10.9002 27.4084 10.9002 26.7806C10.9002 25.286 12.1774 24.074 13.7536 24.074C13.9628 24.074 14.1666 24.0958 14.3623 24.1365C14.8596 24.3268 15.4683 24.6094 15.596 25.5197C15.6911 26.2073 15.3596 26.6258 15.1368 26.8268C15.0743 26.873 15.0118 26.9192 14.9465 26.9682C12.2209 29.1095 13.5008 30.7454 13.7753 31.0444C13.9193 31.183 14.0987 31.3324 14.3161 31.49C14.3161 31.49 13.99 31.4927 13.5987 31.365C12.9438 32.3515 12.8948 34.4439 15.0199 35.7402L15.3759 35.4032C15.3759 35.4032 15.9194 35.7592 16.914 35.9114C14.7101 38.9142 14.4982 40.9577 14.4982 40.9577L15.1476 40.6887C14.9275 41.7865 15.1476 44.542 15.3705 45.6616L15.952 45.0692C16.6205 46.7378 17.5254 48.322 18.5934 49.7759L17.6205 51.3221C17.6205 51.3221 16.1857 50.7705 14.6666 48.9416C13.1449 47.1101 12.5687 43.0067 12.5687 43.0067C9.39202 41.3871 8.49254 43.4252 8.49254 43.4252C10.8894 42.705 11.229 44.9605 11.229 44.9605C11.229 44.9605 10.4328 43.9578 9.61486 44.1969C8.15014 44.6236 7.98438 46.129 7.98438 46.129C9.42192 44.5094 11.5823 47.39 12.4383 49.409C13.5905 52.1319 12.0171 52.8521 12.0171 52.8521C13.8161 52.9417 14.403 51.5232 14.403 51.5232C16.0824 53.1374 17.9059 54.5206 17.9059 54.5206C18.4792 53.8331 19.2646 53.0994 20.0364 52.439L19.2891 50.6672C19.2891 50.6672 20.1288 51.7107 21.4685 53.0097C22.3381 53.8249 23.2566 54.5614 24.2022 55.2027V58.9012C24.2022 58.9012 22.1342 59.0235 19.7809 58.6756C17.4276 58.3278 15.7373 55.1293 15.5716 55.0559C12.2454 53.6184 12.1557 57.1565 12.1557 57.1565C12.9329 55.6185 14.5525 56.8549 14.5525 56.8549C14.5525 56.8549 13.7128 56.8549 13.1747 57.3957C11.8024 58.768 12.9655 60.0045 12.9655 60.0045C12.8541 57.1076 17.2781 59.7463 19.0798 60.9936C20.8842 62.2409 19.8434 63.4203 19.8434 63.4203C21.8217 63.241 21.5283 60.8577 21.5283 60.8577C24.2783 61.2626 26.4659 61.173 26.4659 61.173C26.5175 59.5642 26.6915 58.0642 26.9143 56.7408L29.9008 57.8305L28.0447 57.8033C28.0203 59.8197 28.1806 62.385 28.6942 64.8905C29.1263 66.9911 29.9144 68.9422 31.5557 70.3309C32.1835 70.8608 33.0721 71.1869 33.5612 70.6379L33.1319 69.1542C33.1319 69.1542 35.0123 72.1787 37.3086 72.994C39.007 73.5973 39.5179 72.5402 39.7734 71.5211C39.7734 71.5211 41.9202 73.1842 43.5126 72.0891C45.2409 70.8988 44.5887 67.9802 44.5887 67.9802C44.5887 67.9802 46.26 68.2927 46.9122 67.3009C47.1567 66.9286 47.2518 66.2057 47.1812 65.2628C46.9366 61.5779 43.9202 57.8115 43.9202 57.8115L44.4855 57.5886C42.8006 54.7978 40.2761 52.083 36.7624 50.4444C36.7461 49.9417 36.7053 49.409 36.6483 48.8465C36.9961 49.1346 37.3195 49.409 37.6021 49.6645C38.4282 50.4118 41.4066 52.2651 44.7355 51.7624C46.0235 51.5667 46.5969 50.871 46.3687 50.1591C46.2491 49.784 46.0235 49.6645 46.0235 49.6645C47.5372 49.6183 49.3579 49.2025 50.4612 48.4063C52.0645 47.2459 51.3607 46.2921 50.4829 46.0448C49.9639 45.8981 49.6514 45.8437 49.6514 45.8437C51.4802 45.485 53.5971 44.6181 54.6406 43.2268C55.3608 42.2675 54.7249 41.3327 53.8471 41.4224C52.3498 41.5718 51.7628 41.5718 51.7628 41.5718C58.5375 39.4441 59.0266 35.3325 59.0266 35.3325C55.5836 37.0146 51.5074 37.4657 51.5074 37.4657C61.668 34.1396 60.8881 28.0687 60.8881 28.0687ZM16.6096 31.4384C16.3243 31.5933 15.9058 31.6422 15.6096 31.5607C15.6096 31.5607 15.1422 30.7998 15.7618 30.2128C16.1314 29.8623 16.7509 30.0769 16.9412 30.4193C17.164 30.8188 16.9602 31.2482 16.6096 31.4384Z" fill="#1242A7"/>
</g>
<defs>
<clipPath id="clip0_3219_19636">
<rect width="165.766" height="92" fill="white" transform="translate(0.117188)"/>
</clipPath>
</defs>
</svg>
