<svg xmlns="http://www.w3.org/2000/svg" width="167" height="34" fill="none" viewBox="0 0 167 34"><g clip-path="url(#a)"><path fill="#9a0608" d="M29.83 28.048c-1.215-1.302-1.82-3.07-1.82-5.315 0-2.419.605-4.314 1.837-5.667 1.232-1.359 2.954-2.027 5.154-2.027 1.756 0 3.173.432 4.469 1.44.829.65 1.434 1.457 1.434 2.32 0 .864-.548 1.4-1.417 1.4-.467 0-.933-.196-1.353-.593a2.8 2.8 0 0 1-.386-.473l-.161-.253c-.04-.057-.081-.12-.121-.155q-.942-1.065-2.609-1.066c-1.175 0-2.102.432-2.793 1.279-.668.846-1.013 2.044-1.013 3.564s.345 2.736 1.013 3.582c.685.847 1.659 1.261 2.914 1.261 1.134 0 2.021-.334 2.568-.985.104-.138.242-.316.346-.489.103-.219.184-.357.224-.392.507-.627.87-.829 1.417-.829.403 0 .749.138 1.014.392.282.253.426.553.426.927q0 .534-.363 1.18a5 5 0 0 1-.99 1.181c-1.354 1.163-2.834 1.653-4.792 1.653-2.125 0-3.783-.651-4.993-1.93zM44.123 28.44c-.973-.985-1.457-2.344-1.457-4.095s.484-3.092 1.457-4.094 2.303-1.498 3.985-1.498 3.011.49 3.985 1.498c.973.984 1.457 2.343 1.457 4.094 0 1.75-.484 3.11-1.457 4.094-.974 1.002-2.304 1.498-3.985 1.498s-3.012-.49-3.985-1.498m6.49-4.095c0-2.067-.91-3.23-2.505-3.23s-2.528 1.163-2.528 3.23.91 3.248 2.528 3.248 2.505-1.18 2.505-3.248M55.502 28.204V20.51c0-1.042.483-1.572 1.434-1.572.829 0 1.255.415 1.313 1.278l.04.357c.725-1.163 1.883-1.808 3.276-1.808 2.344 0 3.536 1.238 3.536 3.703v5.747c0 1.042-.483 1.555-1.434 1.555-.95 0-1.434-.513-1.434-1.555v-4.94c0-1.498-.506-2.085-1.658-2.085-1.353 0-2.206.886-2.206 2.205v4.82c0 1.042-.483 1.555-1.433 1.555s-1.434-.513-1.434-1.555zM69.893 29.505c-.225-.179-.444-.57-.668-1.198l-2.667-7.285a1.8 1.8 0 0 1-.144-.725c0-.375.144-.709.403-.962a1.5 1.5 0 0 1 1.031-.392c.749 0 1.192.357 1.457 1.279l1.9 6.415 1.941-6.478c.242-.83.708-1.239 1.394-1.239.87 0 1.416.473 1.416 1.238 0 .22-.057.473-.16.79l-2.708 7.359c-.241.628-.483 1.025-.708 1.198-.224.172-.725.253-1.497.253-.443 0-.766-.08-.99-.253M78.121 28.422c-.91-1.025-1.376-2.401-1.376-4.134s.444-3.053 1.353-4.055c.887-.984 2.102-1.474 3.657-1.474s2.81.473 3.743 1.4 1.394 2.182 1.394 3.737c0 .455-.08.766-.265.944-.161.179-.587.254-1.273.254h-5.643c.08 1.652.887 2.522 2.326 2.522q1.003-.001 1.636-.53l.201-.178q.727-.65 1.273-.651c.645 0 1.134.455 1.134 1.065 0 .415-.242.847-.708 1.302-.91.846-2.246 1.319-3.783 1.319-1.538 0-2.77-.513-3.68-1.515zm5.822-5.16c-.057-1.416-.766-2.165-2.124-2.165-1.273 0-1.964.749-2.102 2.165zM88.735 32.655c0-.709.322-.985 1.215-1.123.426-.058.725-.156.91-.317.184-.178.322-.432.426-.766l.12-.391-3.293-9.036a1.8 1.8 0 0 1-.144-.725c0-.375.144-.709.426-.962a1.5 1.5 0 0 1 1.013-.392c.749 0 1.216.392 1.475 1.279l1.963 6.455 1.924-6.495c.224-.847.685-1.262 1.393-1.262.87 0 1.417.49 1.417 1.221 0 .22-.058.472-.184.806l-3.743 10.51c-.565 1.635-1.515 2.361-3.076 2.361-1.272 0-1.842-.357-1.842-1.163M98.622 26.706c0-.962.242-1.693.726-2.206s1.296-.886 2.447-1.122c.467-.081 1.014-.179 1.676-.254s1.111-.138 1.336-.219c.305-.098.443-.374.443-.789 0-.846-.483-1.18-1.756-1.18q-.969.001-1.635.53l-.323.316c-.443.49-.869.726-1.272.726a1.14 1.14 0 0 1-1.152-1.14c0-.691.403-1.302 1.232-1.831.829-.53 1.837-.79 3.052-.79 3.012 0 4.653 1.043 4.653 2.955v5.943c0 .218.023.431.04.725.024.138.024.254.041.334q.024.119.023.179c0 .65-.444 1.065-1.233 1.065-1.071 0-1.554-.49-1.577-1.676-.726 1.1-1.924 1.676-3.456 1.676-2.044 0-3.253-1.198-3.253-3.248zm6.001.455c.443-.415.668-1.002.668-1.733v-.985a7 7 0 0 1-1.636.512c-.305.058-.524.121-.668.139-.161.017-.242.04-.265.057-.95.236-1.353.628-1.353 1.4 0 .806.547 1.26 1.497 1.26q1.09-.001 1.757-.65M110.548 28.203V20.51c0-1.043.484-1.573 1.434-1.573.829 0 1.255.415 1.313 1.279l.04.357c.726-1.163 1.883-1.808 3.277-1.808 2.344 0 3.536 1.238 3.536 3.702v5.748c0 1.042-.484 1.554-1.434 1.554s-1.434-.512-1.434-1.554v-4.941c0-1.498-.507-2.085-1.659-2.085-1.353 0-2.205.887-2.205 2.206v4.82c0 1.042-.484 1.554-1.434 1.554s-1.434-.512-1.434-1.554zM123.407 28.463c-.887-1.002-1.336-2.361-1.336-4.112s.444-3.092 1.354-4.094c.909-1.003 2.142-1.498 3.743-1.498 1.215 0 2.246.294 3.092.904.87.61 1.296 1.279 1.296 2.045a.99.99 0 0 1-.386.806 1.3 1.3 0 0 1-.887.334c-.484 0-.829-.196-1.376-.83-.305-.356-.588-.593-.829-.708-.265-.138-.565-.195-.91-.195-1.394 0-2.102 1.082-2.102 3.265 0 2.027.748 3.127 2.125 3.127.645 0 1.054-.196 1.457-.651l.305-.374c.426-.593.869-.887 1.313-.887q.546 0 .91.357c.265.253.386.553.386.887 0 .65-.346 1.26-1.054 1.871-.974.847-2.062 1.221-3.415 1.221-1.555 0-2.793-.49-3.68-1.474zM134.182 17.734a1.35 1.35 0 0 1-.444-1.025c0-.415.144-.749.444-1.042a1.46 1.46 0 0 1 1.071-.432c.426 0 .766.138 1.071.432.305.276.443.627.443 1.042s-.144.749-.443 1.042a1.46 1.46 0 0 1-1.071.432c-.426 0-.766-.155-1.071-.455zm-.369 10.47V20.51c0-1.043.484-1.572 1.434-1.572s1.434.53 1.434 1.572v7.693c0 1.043-.484 1.555-1.434 1.555s-1.434-.512-1.434-1.555M139.255 28.204V20.51c0-1.042.484-1.572 1.434-1.572.829 0 1.255.415 1.313 1.278l.04.357c.726-1.163 1.878-1.808 3.277-1.808 2.344 0 3.536 1.238 3.536 3.703v5.747c0 1.042-.484 1.555-1.434 1.555s-1.434-.513-1.434-1.555v-4.94c0-1.498-.507-2.085-1.659-2.085-1.353 0-2.205.886-2.205 2.205v4.82c0 1.042-.484 1.555-1.434 1.555s-1.434-.513-1.434-1.555zM152.696 33.185c-.789-.455-1.192-1.003-1.192-1.653 0-.726.587-1.238 1.313-1.238.184 0 .363.04.547.12.184.058.403.22.708.456l.04.017c.628.49 1.233.749 1.82.749.887 0 1.515-.18 1.883-.553.346-.375.524-1.043.524-2.045v-.927c-.587 1.002-1.537 1.474-2.994 1.474s-2.505-.472-3.334-1.44c-.83-.961-1.256-2.262-1.256-3.857 0-1.694.403-3.03 1.232-4.037.807-1.002 1.918-1.498 3.317-1.498s2.448.53 3.093 1.636v-.179c0-.765.524-1.278 1.336-1.278.95 0 1.393.49 1.393 1.572v8.385c0 1.808-.403 3.092-1.232 3.84-.806.75-2.182 1.124-4.106 1.124-1.272 0-2.303-.22-3.092-.669m5.643-9.036c0-1.912-.846-2.994-2.367-2.994s-2.303 1.082-2.303 3.029.829 3.052 2.344 3.052 2.326-1.065 2.326-3.093z"/><path fill="#e01b2c" d="M36.233 13.34c-.91-1.024-1.376-2.4-1.376-4.134 0-1.733.443-3.052 1.353-4.054.887-.985 2.102-1.474 3.657-1.474s2.81.472 3.743 1.4c.933.926 1.394 2.182 1.394 3.736 0 .455-.081.766-.265.945-.161.178-.588.253-1.273.253h-5.643c.08 1.653.886 2.522 2.326 2.522q1.003-.001 1.636-.53l.201-.178q.727-.649 1.273-.65c.645 0 1.134.454 1.134 1.065 0 .414-.242.846-.708 1.301-.91.847-2.246 1.319-3.784 1.319s-2.77-.513-3.68-1.514zm5.822-5.159c-.057-1.417-.766-2.165-2.125-2.165-1.272 0-1.963.748-2.102 2.165zM46.91 13.122V1.708c0-1.042.483-1.555 1.434-1.555.95 0 1.434.513 1.434 1.555v11.414c0 1.042-.484 1.555-1.434 1.555s-1.434-.513-1.434-1.555M53.152 13.358c-.973-.985-1.457-2.344-1.457-4.094s.484-3.093 1.457-4.095 2.303-1.497 3.985-1.497 3.012.49 3.985 1.497c.973.985 1.457 2.344 1.457 4.095s-.484 3.11-1.457 4.094c-.973 1.002-2.303 1.497-3.985 1.497s-3.012-.49-3.985-1.497m6.496-4.094c0-2.068-.91-3.231-2.505-3.231s-2.528 1.163-2.528 3.23.91 3.248 2.528 3.248 2.505-1.18 2.505-3.247M65.205 13.375c-.887-1.002-1.336-2.36-1.336-4.111s.443-3.093 1.353-4.095 2.142-1.497 3.743-1.497c1.215 0 2.246.294 3.093.904.87.61 1.295 1.278 1.295 2.044 0 .317-.12.593-.385.806a1.3 1.3 0 0 1-.887.335c-.484 0-.83-.196-1.377-.83-.305-.357-.587-.593-.829-.708-.265-.138-.564-.196-.91-.196-1.393 0-2.102 1.083-2.102 3.265 0 2.027.749 3.127 2.125 3.127.645 0 1.054-.196 1.457-.65l.305-.375c.427-.593.87-.887 1.313-.887q.546.002.91.357c.265.254.386.553.386.887 0 .65-.345 1.261-1.054 1.872-.973.846-2.061 1.22-3.415 1.22-1.554 0-2.793-.489-3.68-1.474zM75.858 2.653a1.35 1.35 0 0 1-.443-1.025c0-.415.144-.75.443-1.043A1.46 1.46 0 0 1 76.93.153c.426 0 .766.139 1.071.432.306.277.444.628.444 1.043S78.3 2.376 78 2.67a1.46 1.46 0 0 1-1.07.432c-.427 0-.767-.156-1.072-.455zm-.368 10.469V5.428c0-1.042.483-1.572 1.434-1.572.95 0 1.433.53 1.433 1.572v7.694c0 1.042-.483 1.555-1.433 1.555s-1.434-.513-1.434-1.555M81.94 14.066c-.427-.415-.646-1.22-.646-2.401v-5.65h-.466c-.766 0-1.152-.333-1.152-.984 0-.65.386-.985 1.152-.985h.466V2.63c0-1.043.467-1.555 1.417-1.555s1.434.512 1.457 1.555v1.416h.726c.765 0 1.151.334 1.151.985 0 .65-.386.985-1.151.985h-.726v5.787c0 .49.144.65.628.65.04 0 .12 0 .224-.016h.265c.645 0 1.014.334 1.014.961 0 .887-.588 1.279-1.981 1.279-1.152 0-1.94-.196-2.367-.61zM87.762 17.567c0-.708.322-.984 1.215-1.123.426-.057.725-.155.91-.316.184-.179.322-.432.426-.766l.12-.392-3.293-9.035a1.8 1.8 0 0 1-.144-.726c0-.374.144-.708.426-.961a1.5 1.5 0 0 1 1.013-.392c.749 0 1.215.392 1.474 1.278l1.964 6.456 1.923-6.496c.225-.846.686-1.261 1.394-1.261.87 0 1.417.49 1.417 1.22 0 .22-.058.473-.184.807l-3.744 10.51c-.564 1.635-1.514 2.36-3.075 2.36-1.272 0-1.843-.357-1.843-1.163"/><path fill="#9a0608" d="M165.681 31.745q-.465.407-1.215.409c-.501 0-.91-.139-1.215-.41q-.456-.407-.455-1.1 0-.438.173-.782c.161-.311.38-.496.593-.496q.138 0 .225.087c.063.057.092.12.092.201 0 .07-.012.127-.046.179a.9.9 0 0 1-.179.184c-.219.173-.305.34-.305.593 0 .254.098.473.294.628s.46.23.806.23q.518-.001.812-.236c.196-.161.288-.38.288-.65a.8.8 0 0 0-.179-.519.8.8 0 0 0-.501-.253v.484c0 .16-.109.276-.282.276s-.259-.104-.259-.276v-.703c0-.27.069-.38.294-.38h1.215c.195 0 .288.069.288.23 0 .127-.069.208-.219.236l-.236.047c.316.241.46.53.46.932q-.001.667-.46 1.083zM165.745 28.647h-1.728q-.352-.002-.351-.305c0-.179.103-.277.276-.277h.207c-.305-.126-.483-.322-.483-.535s.121-.334.322-.334c.104 0 .179.034.236.103.035.04.052.116.058.22q.002.085.011.138.07.37.519.368h.933q.352 0 .351.311.001.31-.351.311M165.796 26.758q-.328.318-.915.317c-.392 0-.691-.104-.916-.317q-.335-.318-.334-.87-.001-.55.334-.87.328-.317.916-.316.587-.001.915.317c.225.213.334.5.334.87q.002.55-.334.869m-.921-1.417c-.461 0-.726.196-.726.547s.26.553.726.553.726-.195.726-.553c0-.357-.265-.547-.726-.547M165.307 24.287h-1.29q-.352 0-.351-.31c0-.208.121-.312.351-.312h1.106c.334 0 .46-.103.46-.363 0-.299-.19-.477-.489-.477h-1.083q-.352 0-.351-.311c0-.208.121-.311.351-.311h1.728q.352 0 .351.31c0 .18-.086.271-.288.288h-.081q.388.243.386.726c0 .518-.27.772-.806.772zM166.649 21.639h-2.632q-.352 0-.351-.311c0-.179.092-.271.288-.288l.08-.012a.75.75 0 0 1-.403-.685c0-.288.115-.518.346-.703.224-.178.524-.27.892-.27.369 0 .68.086.916.27a.82.82 0 0 1 .345.691c0 .3-.121.536-.368.691h.892c.236 0 .346.104.346.306 0 .201-.115.31-.346.31zm-1.244-1.51c-.121-.091-.294-.137-.507-.137-.478 0-.726.184-.726.518s.248.512.703.512.72-.184.72-.524a.44.44 0 0 0-.184-.368z"/><path fill="#e01b2c" d="M28.211 7.202 28.04.948l-10.06 17.575L7.63.435a.58.58 0 0 0-.5-.288H.575a.575.575 0 0 0-.501.859l15.387 27.341c1.123 1.993 3.99 1.993 5.108 0L32.674 6.741c-.403.415-1.497.91-4.463.455z"/><path fill="#9a0608" d="m32.675 6.741.241-.426L28.04.942l.173 6.254c2.965.455 4.06-.046 4.463-.455"/></g><defs><clipPath id="a"><path fill="#fff" d="M0 .147h167v33.705H0z"/></clipPath></defs></svg>